<svg width="44" height="30" viewBox="0 0 44 30" fill="none" xmlns="http://www.w3.org/2000/svg">
<rect width="43.5301" height="29.9999" rx="10" fill="url(#paint0_linear_3820_1639)"/>
<path d="M11.806 8.24584C10.8086 8.24584 10 9.05054 10 10.043C10 11.0356 10.8086 11.8401 11.806 11.8401C12.8034 11.8401 13.6121 11.0356 13.6121 10.043C13.6121 9.05054 12.8034 8.24584 11.806 8.24584Z" fill="#1D31F5"/>
<path d="M10.4204 13.083H13.1918V22H10.4204V13.083Z" fill="black"/>
<path d="M32.2971 14.3834C31.539 13.5797 30.4781 13.0781 29.3192 13.0789C28.4506 13.0784 27.6375 13.3603 26.965 13.8397V8.00011H24.1938V22H26.965V21.2264C27.6367 21.7059 28.4491 21.9878 29.3171 21.9878H29.3192C30.4781 21.9882 31.539 21.4867 32.2971 20.6827C33.0569 19.8812 33.5308 18.759 33.5301 17.5332C33.5308 16.3077 33.0569 15.1849 32.2971 14.3834ZM28.7684 19.3196C27.7713 19.3196 26.963 18.5146 26.963 17.5223C26.963 16.5297 27.7713 15.7252 28.7684 15.7252C29.766 15.7252 30.5749 16.5297 30.5749 17.5223C30.5749 18.5146 29.766 19.3196 28.7684 19.3196Z" fill="black"/>
<path d="M20.5196 13.0829V13.8469C19.8463 13.3629 19.0306 13.0783 18.159 13.0785C17.0018 13.078 15.9425 13.5796 15.1856 14.3834C14.4264 15.1848 13.9536 16.3072 13.9541 17.5331C13.9536 18.759 14.4264 19.8812 15.1856 20.6826C15.9425 21.4868 17.0018 21.9885 18.159 21.9877H18.1613C19.0319 21.9877 19.8471 21.703 20.5196 21.2193V22H23.291V13.0829H20.5196ZM18.7091 19.3196C17.7117 19.3196 16.9035 18.5149 16.9035 17.5222C16.9035 16.5296 17.7117 15.7251 18.7091 15.7251C19.7068 15.7251 20.5153 16.5296 20.5153 17.5222C20.5153 18.5149 19.7068 19.3196 18.7091 19.3196Z" fill="black"/>
<defs>
<linearGradient id="paint0_linear_3820_1639" x1="21.7651" y1="0" x2="21.7651" y2="29.9999" gradientUnits="userSpaceOnUse">
<stop stop-color="white" stop-opacity="0.3"/>
<stop offset="1" stop-color="white" stop-opacity="0.8"/>
</linearGradient>
</defs>
</svg>
