<svg width="160" height="50" viewBox="0 0 160 50" fill="none" xmlns="http://www.w3.org/2000/svg">
<g clip-path="url(#clip0_3823_1831)">
<path d="M135 0H25C11.1929 0 0 11.1929 0 25C0 38.8071 11.1929 50 25 50H135C148.807 50 160 38.8071 160 25C160 11.1929 148.807 0 135 0Z" fill="#97F4F7"/>
<path d="M135 0H25C11.1929 0 0 11.1929 0 25C0 38.8071 11.1929 50 25 50H135C148.807 50 160 38.8071 160 25C160 11.1929 148.807 0 135 0Z" fill="url(#paint0_linear_3823_1831)"/>
<path d="M135 0H106C92.1929 0 81 11.1929 81 25C81 38.8071 92.1929 50 106 50H135C148.807 50 160 38.8071 160 25C160 11.1929 148.807 0 135 0Z" fill="white" fill-opacity="0.55"/>
<path d="M102.305 23.0391V15.0713H99.0879V13.3038H107.663V15.0713H104.446V23.0391H102.305Z" fill="black"/>
<path d="M108.448 14.9471V13H110.699V14.9471H108.448ZM108.531 23.0391V16.2589H110.616V23.0391H108.531Z" fill="black"/>
<path d="M112.226 23.0391V13.3038H114.311V19.0621H114.339L116.838 16.2589H119.31L116.092 19.8907V19.1036L119.448 23.0391H116.935L114.339 20.1116H114.311V23.0391H112.226Z" fill="black"/>
<path d="M122.425 23.0391V15.0713H119.208V13.3038H127.783V15.0713H124.566V23.0391H122.425Z" fill="black"/>
<path d="M130.818 23.191C130.09 23.191 129.455 23.0483 128.912 22.7629C128.378 22.4776 127.964 22.0679 127.669 21.5339C127.375 21 127.227 20.3694 127.227 19.6421C127.227 18.9148 127.375 18.2888 127.669 17.7641C127.964 17.2394 128.378 16.8344 128.912 16.549C129.455 16.2636 130.09 16.1208 130.818 16.1208C131.545 16.1208 132.176 16.2636 132.71 16.549C133.253 16.8344 133.672 17.2441 133.966 17.778C134.27 18.3027 134.422 18.9241 134.422 19.6421C134.422 20.3694 134.27 21 133.966 21.5339C133.672 22.0679 133.253 22.4776 132.71 22.7629C132.176 23.0483 131.545 23.191 130.818 23.191ZM130.818 21.6306C131.269 21.6306 131.632 21.4696 131.909 21.1474C132.185 20.816 132.323 20.3142 132.323 19.6421C132.323 18.9701 132.185 18.4776 131.909 18.1646C131.632 17.8423 131.269 17.6812 130.818 17.6812C130.376 17.6812 130.017 17.8423 129.741 18.1646C129.464 18.4776 129.326 18.9701 129.326 19.6421C129.326 20.3142 129.464 20.816 129.741 21.1474C130.017 21.4696 130.376 21.6306 130.818 21.6306Z" fill="black"/>
<path d="M135.69 23.0391V13.3038H137.776V19.0621H137.803L140.303 16.2589H142.774L139.557 19.8907V19.1036L142.913 23.0391H140.399L137.803 20.1116H137.776V23.0391H135.69Z" fill="black"/>
<path d="M103.89 37C103.384 37 102.891 36.954 102.413 36.8619C101.943 36.7791 101.506 36.6594 101.101 36.5029C100.696 36.3372 100.341 36.1438 100.037 35.9229L100.659 34.2382C100.953 34.4407 101.271 34.6156 101.612 34.7629C101.952 34.9102 102.316 35.0253 102.703 35.1082C103.089 35.1818 103.485 35.2186 103.89 35.2186C104.562 35.2186 105.041 35.1174 105.326 34.9148C105.612 34.7031 105.754 34.4407 105.754 34.1277C105.754 33.9528 105.708 33.8009 105.616 33.672C105.533 33.5432 105.391 33.4327 105.188 33.3406C104.995 33.2394 104.728 33.1565 104.387 33.0921L102.827 32.7606C101.943 32.5765 101.285 32.2635 100.852 31.8216C100.429 31.3705 100.217 30.7814 100.217 30.0541C100.217 29.4281 100.383 28.8849 100.714 28.4246C101.055 27.9643 101.52 27.6053 102.109 27.3475C102.707 27.0898 103.393 26.9609 104.166 26.9609C104.617 26.9609 105.05 27.0069 105.464 27.099C105.879 27.1818 106.261 27.3061 106.61 27.4718C106.96 27.6375 107.264 27.8354 107.522 28.0656L106.9 29.6398C106.532 29.3452 106.118 29.1243 105.658 28.977C105.197 28.8205 104.696 28.7422 104.152 28.7422C103.766 28.7422 103.434 28.7929 103.158 28.8941C102.891 28.9954 102.684 29.1381 102.537 29.3222C102.399 29.5063 102.33 29.7181 102.33 29.9574C102.33 30.2244 102.426 30.4407 102.62 30.6064C102.813 30.7722 103.149 30.9056 103.628 31.0069L105.188 31.3383C106.09 31.5316 106.762 31.8446 107.204 32.2773C107.646 32.7008 107.867 33.2624 107.867 33.962C107.867 34.5696 107.701 35.1036 107.37 35.5639C107.048 36.015 106.587 36.3694 105.989 36.6272C105.4 36.8757 104.7 37 103.89 37Z" fill="black"/>
<path d="M112.311 36.9999C111.344 36.9999 110.626 36.7651 110.156 36.2956C109.687 35.8261 109.452 35.1357 109.452 34.2243V31.6282H108.168V30.0678H109.452V28.0793H111.537V30.0678H113.54V31.6282H111.537V34.1414C111.537 34.5281 111.625 34.8181 111.8 35.0114C111.984 35.2047 112.274 35.3014 112.67 35.3014C112.789 35.3014 112.914 35.2876 113.043 35.26C113.181 35.2323 113.328 35.1955 113.484 35.1495L113.788 36.6685C113.595 36.7697 113.365 36.848 113.098 36.9032C112.831 36.9677 112.568 36.9999 112.311 36.9999Z" fill="black"/>
<path d="M117.065 37C116.494 37 116.02 36.8941 115.643 36.6824C115.265 36.4707 114.985 36.153 114.8 35.7296C114.625 35.2969 114.538 34.7629 114.538 34.1277V30.0679H116.623V34.183C116.623 34.4499 116.66 34.6755 116.734 34.8596C116.807 35.0345 116.918 35.168 117.065 35.2601C117.222 35.3429 117.42 35.3843 117.659 35.3843C117.926 35.3843 118.161 35.3245 118.363 35.2048C118.566 35.0759 118.722 34.8964 118.833 34.6663C118.952 34.4361 119.012 34.1646 119.012 33.8516V30.0679H121.097V36.8481H119.067V35.5224H119.275C119.072 35.9919 118.782 36.3556 118.405 36.6133C118.027 36.8711 117.581 37 117.065 37Z" fill="black"/>
<path d="M125.348 37C124.759 37 124.239 36.8573 123.788 36.5719C123.346 36.2865 123.001 35.8769 122.752 35.3429C122.504 34.809 122.379 34.1784 122.379 33.4511C122.379 32.7238 122.504 32.0978 122.752 31.5731C123.001 31.0483 123.346 30.6433 123.788 30.3579C124.239 30.0725 124.759 29.9298 125.348 29.9298C125.882 29.9298 126.352 30.0587 126.757 30.3165C127.171 30.5742 127.452 30.9102 127.599 31.3245H127.447V27.1128H129.532V36.8481H127.489V35.5086H127.613C127.484 35.9597 127.208 36.3234 126.784 36.5995C126.37 36.8665 125.891 37 125.348 37ZM125.97 35.4396C126.421 35.4396 126.784 35.2785 127.061 34.9563C127.337 34.6249 127.475 34.1231 127.475 33.4511C127.475 32.7791 127.337 32.2865 127.061 31.9735C126.784 31.6513 126.421 31.4902 125.97 31.4902C125.528 31.4902 125.169 31.6513 124.893 31.9735C124.616 32.2865 124.478 32.7791 124.478 33.4511C124.478 34.1231 124.616 34.6249 124.893 34.9563C125.169 35.2785 125.528 35.4396 125.97 35.4396Z" fill="black"/>
<path d="M131.056 28.756V26.809H133.307V28.756H131.056ZM131.139 36.8481V30.0679H133.224V36.8481H131.139Z" fill="black"/>
<path d="M138.093 37C137.366 37 136.731 36.8573 136.187 36.5719C135.653 36.2865 135.239 35.8769 134.945 35.3429C134.65 34.809 134.503 34.1784 134.503 33.4511C134.503 32.7238 134.65 32.0978 134.945 31.5731C135.239 31.0483 135.653 30.6433 136.187 30.3579C136.731 30.0725 137.366 29.9298 138.093 29.9298C138.82 29.9298 139.451 30.0725 139.985 30.3579C140.528 30.6433 140.947 31.0529 141.241 31.5869C141.545 32.1116 141.697 32.733 141.697 33.4511C141.697 34.1784 141.545 34.809 141.241 35.3429C140.947 35.8769 140.528 36.2865 139.985 36.5719C139.451 36.8573 138.82 37 138.093 37ZM138.093 35.4396C138.544 35.4396 138.908 35.2785 139.184 34.9563C139.46 34.6249 139.598 34.1231 139.598 33.4511C139.598 32.7791 139.46 32.2865 139.184 31.9735C138.908 31.6513 138.544 31.4902 138.093 31.4902C137.651 31.4902 137.292 31.6513 137.016 31.9735C136.74 32.2865 136.602 32.7791 136.602 33.4511C136.602 34.1231 136.74 34.6249 137.016 34.9563C137.292 35.2785 137.651 35.4396 138.093 35.4396Z" fill="black"/>
<path d="M15.0058 21.0694C14.9594 19.8311 15.1913 18.5929 15.7572 17.4109C16.4159 15.8818 17.4086 14.6435 18.7723 13.6961C19.6629 13.0769 20.6556 12.5985 21.7317 12.364C22.9563 12.0826 24.1345 12.0356 25.4055 12.2702C27.901 12.7486 29.7843 14.1745 31.148 16.2664C31.8995 17.4578 32.3262 18.743 32.4654 20.1689C32.5118 20.9756 32.4654 21.7824 32.419 22.5516C32.3726 22.9831 32.2798 23.3583 32.1407 23.7899C31.6212 25.5535 30.5914 27.0263 29.1256 28.1614C28.1329 28.9681 27.0568 29.4934 25.8322 29.7749C24.6076 30.0563 23.3367 30.0563 22.1121 29.8687C20.368 29.5872 18.8651 28.7711 17.5941 27.439C16.889 26.7261 16.3231 25.9193 15.85 25.0094C15.2934 23.7805 15.0058 22.4484 15.0058 21.0694ZM18.2528 21.1163C18.2528 21.3508 18.2528 21.5947 18.2992 21.7824C18.3919 23.0675 18.9115 24.212 19.8021 25.1595C21.1194 26.4447 22.6687 27.0169 24.5056 26.8199C25.257 26.7261 25.9621 26.4916 26.6208 26.06C28.0773 25.0563 29.0699 23.7336 29.2555 21.9231C29.441 20.1126 29.0699 18.4991 27.8454 17.1201C27.0475 16.2195 26.0549 15.6004 24.8859 15.4034C23.7541 15.2158 22.5852 15.2627 21.4998 15.788C20.4144 16.3133 19.6165 17.0732 19.0506 18.0675C18.4383 19.0244 18.2064 20.0188 18.2528 21.1163Z" fill="black"/>
<path d="M66.6147 17.7674C66.0488 17.1951 65.3901 16.6041 64.7778 16.2195C63.3677 15.4128 61.8648 15.1689 60.3062 15.5066C58.6085 15.8912 57.3932 16.8387 56.5397 18.3584C56.1593 19.0244 55.9274 19.7373 55.9274 20.4972C55.9274 21.2101 55.9274 21.97 56.113 22.6829C56.3913 23.6773 56.9108 24.4934 57.6622 25.2064C59.3507 26.773 61.3267 27.2045 63.544 26.6323C64.9077 26.3039 65.7983 25.3471 66.3642 24.015H62.0318C61.605 24.015 61.605 24.015 61.605 23.5835V21.3977C61.605 21.0694 61.605 21.0694 61.939 21.0694H69.6576C69.9916 21.0694 69.9916 21.0694 69.9916 21.3977C70.038 22.5422 69.8988 23.6304 69.4721 24.6811C68.9989 25.9193 68.2939 27.0075 67.3569 27.9174C66.4199 28.818 65.3345 29.4371 64.0635 29.728C62.7925 30.0563 61.4752 30.1126 60.2042 29.8687C59.2208 29.728 58.2745 29.4371 57.4303 29.015C56.2985 28.4428 55.3151 27.636 54.5637 26.6323C53.8122 25.6379 53.2927 24.5403 52.968 23.3021C52.634 21.97 52.5876 20.6379 52.8752 19.2589C53.302 17.1201 54.4245 15.4034 56.0759 14.0713C57.0592 13.2645 58.191 12.7392 59.4156 12.5047C60.9649 12.1764 62.4771 12.2233 64.0264 12.5516C65.8633 12.9362 67.3662 13.8837 68.6371 15.2158C68.8227 15.4034 68.8227 15.4503 68.6371 15.6942C68.0248 16.2664 67.4218 16.848 66.8466 17.5047C66.6147 17.7674 66.7075 17.6735 66.6147 17.7674Z" fill="black"/>
<path d="M37.8183 17.1201C37.8183 17.3546 37.8647 17.5985 37.8647 17.8799C37.9111 18.2083 37.9111 18.5929 37.9575 18.9306C38.0038 19.1651 37.9111 19.212 37.7255 19.2589C37.2524 19.3058 36.7885 19.3996 36.3618 19.4465C35.9814 19.4934 35.6567 19.5403 35.2764 19.5872C35.23 19.5872 35.1836 19.6341 35.0908 19.6811C36.0742 19.9156 37.0205 20.1126 38.0038 20.3002C37.2988 23.1051 36.6401 25.863 35.9814 28.6679C35.6474 28.5741 35.3691 28.5272 35.0908 28.4803C34.4321 28.3396 33.7271 28.152 33.0684 27.955C32.8365 27.9081 32.7901 27.8143 32.8365 27.5704C33.1704 26.3321 33.4488 25.1407 33.7271 23.9118C33.9126 23.1051 34.1074 22.2983 34.293 21.4822C34.3858 21.0038 34.5249 20.5347 34.627 20.1032C34.6733 19.7749 34.7661 19.4371 34.7197 19.1557C34.627 18.0113 34.4878 16.9231 34.3394 15.7786C34.2002 14.5872 34.1074 13.4522 33.959 12.2608C33.9126 11.9325 33.959 11.8762 34.2837 11.8762C34.9424 11.7824 35.5547 11.7355 36.167 11.6417C36.3989 11.6417 36.5473 11.6417 36.7329 11.7824C38.6254 13.3583 40.4994 14.8874 42.429 16.4071C42.661 16.5947 42.9022 16.7917 43.2269 17.0263C43.2733 16.9325 43.2733 16.8386 43.366 16.7917C44.7762 15.0281 46.1863 13.227 47.5964 11.4634C47.8747 11.1351 48.1159 10.7974 48.3943 10.469C48.487 10.3752 48.6262 10.2814 48.719 10.2345C49.424 10.1407 50.1291 10.0938 50.8342 10C51.0197 10 51.0661 10 51.1125 10.1876C51.2052 11.379 51.298 12.4672 51.4372 13.5647C51.5299 14.6623 51.6691 15.7036 51.8175 16.8011C51.8639 17.2326 51.8639 17.2326 51.4372 17.2796C50.7321 17.3734 50.027 17.4672 49.3684 17.6173H49.2756C48.4778 17.7111 48.5705 17.7111 48.5241 17.045C48.4778 16.7167 48.4778 16.379 48.4314 15.9475C48.2922 16.0882 48.1994 16.182 48.1067 16.2758C47.6799 16.7542 47.3088 17.2702 46.9285 17.7955C46.8357 17.9362 46.6965 17.9831 46.5481 17.9831C45.0916 18.1707 43.6351 18.4146 42.225 18.6492C41.659 18.743 41.1395 18.7899 40.5829 18.8837C40.351 18.9306 40.1561 18.8837 39.9706 18.743C39.3119 18.1707 38.6532 17.6454 37.9946 17.1295C37.9111 17.0732 37.8647 17.0732 37.8183 17.1201Z" fill="black"/>
<path d="M49.3963 32.0544C48.9232 31.9606 48.5521 31.8668 48.1717 31.773C47.6522 31.6323 47.1327 31.4916 46.576 31.3415C46.3441 31.2946 46.3441 31.2008 46.3905 31.0038C46.5297 30.3846 46.6688 29.7655 46.8636 29.1463C47.244 27.5797 47.6615 26.0038 48.0418 24.4371C48.181 23.9118 48.2738 23.3865 48.4222 22.8705C48.515 22.5422 48.515 22.5422 48.8489 22.5891C49.6932 22.7298 50.491 22.9268 51.3445 23.1144C51.7249 23.2083 51.7713 23.2083 51.6228 23.5929C51.3909 24.5403 51.1497 25.4972 50.9178 26.4447C50.5374 27.9174 50.2127 29.3902 49.8323 30.8724C49.7859 31.1538 49.6932 31.4447 49.6004 31.7261C49.5355 31.9137 49.4427 32.0075 49.3963 32.0544Z" fill="black"/>
<path d="M46.474 22.2608C45.1566 23.0675 43.8393 23.8743 42.4755 24.7373C41.7241 23.4522 40.9263 22.167 40.1191 20.788C42.2807 21.2664 44.3959 21.6886 46.474 22.167C46.4276 22.167 46.4276 22.2139 46.474 22.2608Z" fill="black"/>
<path d="M29.0697 38.7617H28.3647V38.3302C27.9843 38.8555 27.4741 38.9024 27.2792 38.9024C26.435 38.9024 25.6836 38.2364 25.6836 37.1857C25.6836 36.1351 26.3886 35.4221 27.2792 35.4221C27.7524 35.4221 28.1235 35.6098 28.3183 35.9944V35.5159H29.0234L29.0697 38.7617ZM26.435 37.1482C26.435 37.7205 26.8154 38.0957 27.372 38.0957C27.9379 38.0957 28.309 37.6642 28.309 37.0919C28.309 36.5197 27.9286 36.0976 27.372 36.0976C26.8154 36.0976 26.435 36.5291 26.435 37.1482Z" fill="black"/>
<path d="M35.1928 38.2364C35.1928 39.4278 34.3485 40 33.4487 40C32.6972 40 32.0385 39.5685 31.853 38.8086H32.7436C32.8828 39.2401 33.3559 39.2871 33.4487 39.2871C33.9682 39.2871 34.3857 38.8555 34.3857 38.3865V38.2927C34.2929 38.4334 34.0053 38.818 33.4487 38.818C32.5581 38.818 31.8066 38.0582 31.8066 37.1013C31.8066 36.1069 32.5581 35.394 33.4487 35.394C33.6806 35.394 34.1537 35.4409 34.432 35.9662V35.5347H35.1371L35.1928 38.2364ZM32.6044 37.0544C32.6044 37.5797 32.9291 38.0488 33.5414 38.0488C34.1073 38.0488 34.4784 37.6173 34.4784 37.1013C34.4784 36.5291 34.0981 36.1069 33.5414 36.1069C32.9291 36.0976 32.6044 36.576 32.6044 37.0544Z" fill="black"/>
<path d="M38.811 37.4295C38.9037 37.8142 39.2377 38.0956 39.6552 38.0956C39.8871 38.0956 40.1747 38.0018 40.3602 37.7673H41.2509C40.8241 38.8179 39.8407 38.8179 39.6552 38.8179C38.477 38.8179 37.9575 37.8704 37.9575 37.1106C37.9575 36.3507 38.5234 35.347 39.7016 35.347C40.6849 35.347 41.3436 36.1068 41.3436 37.1106V37.4389H38.811V37.4295ZM40.5458 36.7635C40.453 36.332 40.0727 36.0975 39.7016 36.0975C39.2748 36.0975 38.9501 36.3789 38.811 36.7635H40.5458Z" fill="black"/>
<path d="M44.127 35.4783H44.832V35.7597C44.9248 35.619 45.2124 35.3282 45.7226 35.3282C46.4741 35.3282 46.9936 35.8536 46.9936 36.801V38.7053H46.2422V36.9886C46.2422 36.2757 45.9175 36.0881 45.5835 36.0881C44.9712 36.0881 44.9248 36.7072 44.9248 36.9886V38.7522H44.1734L44.127 35.4783Z" fill="black"/>
<path d="M53.209 37.6735C52.9771 38.3396 52.4112 38.8649 51.6133 38.8649C50.3888 38.8649 49.8228 37.9174 49.8228 37.1013C49.8228 36.3415 50.3888 35.394 51.567 35.394C52.3648 35.394 52.9771 35.8724 53.209 36.5854H52.3184C52.1792 36.3039 51.8917 36.1538 51.567 36.1538C50.9547 36.1538 50.5836 36.6323 50.5836 37.1482C50.5836 37.7205 50.9639 38.1426 51.567 38.1426C51.7061 38.1426 52.1329 38.0957 52.3184 37.7111L53.209 37.6735Z" fill="black"/>
<path d="M58.9423 35.4784L57.059 39.8593H56.2148L56.8271 38.4803L55.6489 35.5347H56.5395L57.291 37.6266L58.0424 35.5347C58.0981 35.4784 58.9423 35.4784 58.9423 35.4784Z" fill="black"/>
</g>
<defs>
<linearGradient id="paint0_linear_3823_1831" x1="1.06667" y1="-6.35782e-07" x2="29.5364" y2="91.1032" gradientUnits="userSpaceOnUse">
<stop stop-color="#62FFF2"/>
<stop offset="1" stop-color="#1EDDFF"/>
</linearGradient>
<clipPath id="clip0_3823_1831">
<rect width="160" height="50" fill="white"/>
</clipPath>
</defs>
</svg>
