<svg width="60" height="60" viewBox="0 0 60 60" fill="none" xmlns="http://www.w3.org/2000/svg">
<g clip-path="url(#clip0_3832_1591)">
<path d="M60 30C60 46.5685 46.5685 60 30 60C13.4315 60 0 46.5685 0 30C0 13.4315 13.4315 0 30 0C46.5685 0 60 13.4315 60 30Z" fill="url(#paint0_linear_3832_1591)"/>
<path d="M39.4884 22.6905C40.2117 21.8559 41.475 21.7652 42.3097 22.4883C43.1443 23.2117 43.2349 24.4749 42.5118 25.3096L28.1046 41.9327L18.5861 32.4141L18.4484 32.2628C17.8076 31.4772 17.8538 30.3183 18.5861 29.586C19.3183 28.8537 20.4773 28.8075 21.2628 29.4483L21.4142 29.586L27.8946 36.0665L39.4884 22.6905Z" fill="white"/>
</g>
<defs>
<linearGradient id="paint0_linear_3832_1591" x1="60" y1="60" x2="-4.24712" y2="55.0427" gradientUnits="userSpaceOnUse">
<stop stop-color="#0BDB00"/>
<stop offset="1" stop-color="#54EF00"/>
</linearGradient>
<clipPath id="clip0_3832_1591">
<rect width="60" height="60" fill="white"/>
</clipPath>
</defs>
</svg>
