<svg width="20" height="20" viewBox="0 0 20 20" fill="none" xmlns="http://www.w3.org/2000/svg">
<path d="M14.3691 4.22462C14.7618 3.90427 15.3408 3.92686 15.707 4.29298C16.0731 4.65909 16.0957 5.2381 15.7753 5.63087L15.707 5.70704L11.414 10L15.707 14.293L15.7753 14.3692C16.0957 14.7619 16.0731 15.3409 15.707 15.707C15.3408 16.0732 14.7618 16.0958 14.3691 15.7754L14.2929 15.707L9.99992 11.4141L5.70696 15.707C5.31643 16.0976 4.68342 16.0976 4.29289 15.707C3.90237 15.3165 3.90237 14.6835 4.29289 14.293L8.58586 10L4.29289 5.70704L4.22453 5.63087C3.90418 5.2381 3.92678 4.65909 4.29289 4.29298C4.65901 3.92686 5.23801 3.90427 5.63078 4.22462L5.70696 4.29298L9.99992 8.58595L14.2929 4.29298L14.3691 4.22462Z" fill="black" fill-opacity="0.5"/>
</svg>
