<svg width="24" height="24" viewBox="0 0 24 24" fill="none" xmlns="http://www.w3.org/2000/svg">
<path d="M2 9V17.1503C2 17.9061 2.30102 18.6309 2.83684 19.1653C3.37266 19.6998 4.09938 20 4.85714 20H19.1429C19.9006 20 20.6273 19.6998 21.1632 19.1653C21.699 18.6309 22 17.9061 22 17.1503V9L13.4971 14.2179C13.0469 14.4942 12.5286 14.6404 12 14.6404C11.4714 14.6404 10.9531 14.4942 10.5029 14.2179L2 9Z" fill="#25F4EE"/>
<path d="M22 7.03705V6.8851C22 6.11993 21.699 5.38609 21.1632 4.84503C20.6273 4.30397 19.9006 4 19.1429 4H4.85714C4.09938 4 3.37266 4.30397 2.83684 4.84503C2.30102 5.38609 2 6.11993 2 6.8851V7.03705L11.2514 12.7861C11.4766 12.926 11.7357 13 12 13C12.2643 13 12.5234 12.926 12.7486 12.7861L22 7.03705Z" fill="#25F4EE"/>
</svg>
