<svg width="20" height="20" viewBox="0 0 20 20" fill="none" xmlns="http://www.w3.org/2000/svg">
<path fill-rule="evenodd" clip-rule="evenodd" d="M4.4879 2.53516H7.09276C7.1987 2.53516 7.30212 2.56746 7.38922 2.62776C7.47632 2.68807 7.54297 2.7735 7.58026 2.87266L8.59137 5.56016C8.62469 5.64903 8.6331 5.74532 8.61567 5.83863L8.10873 8.5553C8.73165 10.0192 9.76012 11.0032 11.465 11.8859L14.149 11.365C14.2444 11.3466 14.343 11.3553 14.4337 11.39L17.1296 12.4178C17.2281 12.4553 17.3129 12.5219 17.3728 12.6087C17.4327 12.6955 17.4649 12.7984 17.465 12.9039V15.3928C17.465 16.522 16.4705 17.4379 15.3066 17.1845C13.1865 16.7234 9.25803 15.5504 6.50665 12.799C3.87054 10.1636 2.9872 6.52335 2.69067 4.55599C2.52054 3.43238 3.42123 2.53516 4.4879 2.53516Z" fill="#25E4E9"/>
</svg>
