<svg width="22" height="18" viewBox="0 0 22 18" fill="none" xmlns="http://www.w3.org/2000/svg">
<path d="M2 18C0.895429 18 0 17.1046 0 16V11.9213C0 10.4262 0.156863 9.02951 0.470588 7.73115C0.823529 6.43279 1.39216 5.1541 2.17647 3.89508C2.69382 3.03866 3.32207 2.18225 4.06122 1.32583C4.7328 0.547706 5.90068 0.49509 6.69696 1.14504L7.05344 1.43601C7.96981 2.18397 8.02753 3.55086 7.28521 4.47181C7.00965 4.81368 6.75772 5.15258 6.52941 5.48852C5.98039 6.31475 5.56863 7.16066 5.29412 8.02623C5.19295 8.38147 5.11353 8.74763 5.05586 9.12469C4.97093 9.68001 4.25435 9.95351 3.86896 9.54477C3.49565 9.14883 3.77636 8.49836 4.32053 8.49836H7.52941C8.63398 8.49836 9.52941 9.39379 9.52941 10.4984V16C9.52941 17.1046 8.63398 18 7.52941 18H2ZM14.4706 18C13.366 18 12.4706 17.1046 12.4706 16V11.9213C12.4706 10.4262 12.6275 9.02951 12.9412 7.73115C13.2941 6.43279 13.8627 5.1541 14.6471 3.89508C15.1644 3.03867 15.7927 2.18225 16.5318 1.32583C17.2034 0.547707 18.3713 0.49509 19.1675 1.14504L19.524 1.43601C20.4404 2.18397 20.4981 3.55086 19.7558 4.47181C19.4802 4.81368 19.2283 5.15258 19 5.48852C18.451 6.31475 18.0392 7.16066 17.7647 8.02623C17.6635 8.38147 17.5841 8.74763 17.5265 9.12469C17.4415 9.68001 16.7249 9.95351 16.3396 9.54477C15.9662 9.14883 16.247 8.49836 16.7911 8.49836H20C21.1046 8.49836 22 9.39379 22 10.4984V16C22 17.1046 21.1046 18 20 18H14.4706Z" fill="#FF004F"/>
</svg>
