<svg width="24" height="24" viewBox="0 0 24 24" fill="none" xmlns="http://www.w3.org/2000/svg">
<path d="M11.9932 2C16.6557 2 20.4998 5.71769 20.5 10.3174C20.5 12.6352 19.657 14.7874 18.2695 16.6113C16.7389 18.6232 14.852 20.376 12.7285 21.752C12.2425 22.0699 11.8039 22.0939 11.2705 21.752C9.13487 20.376 7.24801 18.6232 5.73047 16.6113C4.34203 14.7874 3.5 12.6352 3.5 10.3174C3.50021 5.71778 7.34385 2.00015 11.9932 2ZM11.9922 7.77734C10.4506 7.77756 9.19342 9.04837 9.19336 10.5771C9.19336 12.118 10.4506 13.3299 11.9922 13.3301C13.535 13.3301 14.8047 12.1181 14.8047 10.5771C14.8046 9.04824 13.5349 7.77734 11.9922 7.77734Z" fill="#25F4EE"/>
</svg>
