<svg width="30" height="35" viewBox="0 0 30 35" fill="none" xmlns="http://www.w3.org/2000/svg">
<path d="M14.9883 0C23.2164 0 29.9998 6.50609 30 14.5557C30 18.612 28.512 22.3784 26.0635 25.5703C23.3624 29.091 20.0334 32.1586 16.2861 34.5664C15.4285 35.1229 14.6542 35.1648 13.7129 34.5664C9.94406 32.1585 6.61459 29.0911 3.93652 25.5703C1.4862 22.3784 0 18.612 0 14.5557C0.000231321 6.50614 6.78338 8.03097e-05 14.9883 0ZM15 8C11.134 8 8 11.134 8 15C8 18.866 11.134 22 15 22C18.866 22 22 18.866 22 15C22 11.134 18.866 8 15 8Z" fill="#D9D9D9"/>
<path d="M14.9883 0C23.2164 0 29.9998 6.50609 30 14.5557C30 18.612 28.512 22.3784 26.0635 25.5703C23.3624 29.091 20.0334 32.1586 16.2861 34.5664C15.4285 35.1229 14.6542 35.1648 13.7129 34.5664C9.94406 32.1585 6.61459 29.0911 3.93652 25.5703C1.4862 22.3784 0 18.612 0 14.5557C0.000231321 6.50614 6.78338 8.03097e-05 14.9883 0ZM15 8C11.134 8 8 11.134 8 15C8 18.866 11.134 22 15 22C18.866 22 22 18.866 22 15C22 11.134 18.866 8 15 8Z" fill="url(#paint0_linear_3827_1587)"/>
<defs>
<linearGradient id="paint0_linear_3827_1587" x1="15" y1="0" x2="15" y2="34.9996" gradientUnits="userSpaceOnUse">
<stop stop-color="#C2FFFD"/>
<stop offset="1" stop-color="#00F2EA" stop-opacity="0.8"/>
</linearGradient>
</defs>
</svg>
