<svg width="778" height="685" viewBox="0 0 778 685" fill="none" xmlns="http://www.w3.org/2000/svg">
<g clip-path="url(#clip0_3838_1713)">
<g opacity="0.4" filter="url(#filter0_f_3838_1713)">
<path d="M435.5 150H342.5C236.185 150 150 236.185 150 342.5C150 448.815 236.185 535 342.5 535H435.5C541.815 535 628 448.815 628 342.5C628 236.185 541.815 150 435.5 150Z" fill="url(#paint0_linear_3838_1713)"/>
</g>
<mask id="mask0_3838_1713" style="mask-type:luminance" maskUnits="userSpaceOnUse" x="320" y="463" width="74" height="92">
<path d="M364.897 463.249L320.656 480.146L349.18 554.828L393.421 537.931L364.897 463.249Z" fill="white"/>
</mask>
<g mask="url(#mask0_3838_1713)">
<mask id="mask1_3838_1713" style="mask-type:luminance" maskUnits="userSpaceOnUse" x="320" y="463" width="74" height="92">
<path d="M364.897 463.249L320.656 480.146L349.18 554.828L393.421 537.931L364.897 463.249Z" fill="white"/>
</mask>
<g mask="url(#mask1_3838_1713)">
<mask id="mask2_3838_1713" style="mask-type:luminance" maskUnits="userSpaceOnUse" x="320" y="463" width="74" height="92">
<path d="M320.656 480.146L364.897 463.249L393.421 537.932L349.18 554.829L320.656 480.146Z" fill="white"/>
</mask>
<g mask="url(#mask2_3838_1713)">
<path d="M349.569 503.42L348.809 501.43C348.084 501.599 347.37 501.815 346.673 502.077C338.18 505.308 333.926 514.892 337.191 523.441C338.142 525.932 339.677 528.157 341.666 529.928C343.655 531.699 346.039 532.964 348.616 533.614C344.862 531.769 341.943 528.563 340.45 524.646C337.233 516.223 341.325 506.793 349.57 503.422" fill="#25F4EE"/>
<path d="M358.558 525.831C362.345 524.385 364.283 520.167 362.975 516.34L350.106 482.608L356.232 480.268C355.838 479.61 355.5 478.92 355.223 478.204L346.858 481.399L359.73 515.133C360.358 516.985 360.249 519.008 359.425 520.776C358.602 522.545 357.127 523.923 355.31 524.623C354.172 525.06 352.942 525.208 351.731 525.052C352.726 525.719 353.865 526.138 355.053 526.274C356.241 526.409 357.442 526.257 358.558 525.831ZM372.054 487.343L371.338 485.467C369.086 486.332 366.628 486.514 364.27 485.99C366.653 487.276 369.385 487.751 372.054 487.343Z" fill="#25F4EE"/>
<path d="M364.269 485.988C361.61 484.57 359.552 482.231 358.479 479.408L356.24 480.263C357.122 481.714 358.289 482.97 359.67 483.954C361.05 484.939 362.615 485.631 364.269 485.988ZM349.893 510.473C348.03 511.188 346.527 512.617 345.715 514.445C344.903 516.274 344.847 518.354 345.561 520.229C346.599 522.946 349.042 524.723 351.73 525.051C350.404 524.184 349.386 522.918 348.82 521.435C348.106 519.561 348.161 517.481 348.972 515.652C349.784 513.823 351.286 512.394 353.15 511.678C353.876 511.401 354.622 511.259 355.357 511.212L352.075 502.62C351.349 502.789 350.635 503.005 349.938 503.267C349.814 503.315 349.705 503.369 349.581 503.416L352.099 510.009C351.345 510.053 350.601 510.208 349.893 510.473Z" fill="#FE2C55"/>
<path d="M372.053 487.341L374.55 493.878C370.374 495.478 365.798 495.717 361.47 494.562L368.005 511.671C371.265 520.206 367.015 529.802 358.516 533.049C355.355 534.256 351.896 534.454 348.613 533.614C350.648 534.622 352.867 535.199 355.131 535.31C357.396 535.42 359.657 535.06 361.774 534.253C370.263 531.011 374.528 521.424 371.263 512.874L364.729 495.767C369.057 496.922 373.632 496.682 377.808 495.083L374.596 486.672C373.775 486.986 372.923 487.21 372.053 487.341Z" fill="#FE2C55"/>
<path d="M368.004 511.671L361.47 494.563C365.799 495.718 370.375 495.479 374.552 493.878L372.055 487.342C369.386 487.75 366.654 487.275 364.271 485.989C362.617 485.629 361.052 484.937 359.67 483.953C358.288 482.97 357.118 481.716 356.232 480.268L350.103 482.608L362.974 516.34C363.603 518.193 363.495 520.215 362.671 521.985C361.847 523.754 360.372 525.132 358.555 525.832C357.439 526.255 356.238 526.406 355.051 526.273C353.863 526.14 352.723 525.727 351.724 525.067C350.357 524.901 349.061 524.364 347.974 523.514C346.887 522.665 346.05 521.534 345.555 520.245C344.841 518.371 344.896 516.291 345.708 514.462C346.52 512.634 348.022 511.205 349.885 510.49C350.609 510.213 351.357 510.07 352.092 510.024L349.574 503.43C341.323 506.791 337.231 516.221 340.448 524.644C342.002 528.715 344.989 531.82 348.615 533.614C351.897 534.455 355.356 534.258 358.516 533.051C367.005 529.809 371.266 520.209 368.004 511.671Z" fill="black"/>
</g>
</g>
</g>
<mask id="mask3_3838_1713" style="mask-type:luminance" maskUnits="userSpaceOnUse" x="241" y="467" width="49" height="56">
<path d="M289.49 480.373L264.574 467L241.999 509.06L266.915 522.433L289.49 480.373Z" fill="white"/>
</mask>
<g mask="url(#mask3_3838_1713)">
<mask id="mask4_3838_1713" style="mask-type:luminance" maskUnits="userSpaceOnUse" x="241" y="467" width="49" height="56">
<path d="M289.49 480.373L264.574 467L241.999 509.06L266.915 522.433L289.49 480.373Z" fill="white"/>
</mask>
<g mask="url(#mask4_3838_1713)">
<mask id="mask5_3838_1713" style="mask-type:luminance" maskUnits="userSpaceOnUse" x="241" y="467" width="49" height="56">
<path d="M264.574 467L289.49 480.373L266.916 522.434L241.999 509.06L264.574 467Z" fill="white"/>
</mask>
<g mask="url(#mask5_3838_1713)">
<path d="M265.364 489.148L265.965 488.028C265.606 487.766 265.229 487.528 264.839 487.316C260.061 484.744 254.072 486.568 251.487 491.383C250.734 492.785 250.329 494.348 250.307 495.938C250.284 497.528 250.645 499.098 251.358 500.516C250.725 498.1 251.032 495.529 252.217 493.325C254.763 488.581 260.619 486.744 265.363 489.149" fill="#25F4EE"/>
<path d="M258.757 501.964C260.889 503.109 263.551 502.335 264.768 500.25L274.97 481.258L278.42 483.11C278.563 482.675 278.743 482.253 278.958 481.848L274.247 479.32L264.045 498.313C263.454 499.32 262.498 500.061 261.378 500.38C260.257 500.7 259.059 500.572 258.033 500.025C257.391 499.682 256.844 499.185 256.441 498.577C256.528 499.287 256.784 499.965 257.187 500.554C257.59 501.143 258.128 501.627 258.757 501.964ZM281.408 493.019L281.975 491.962C280.705 491.284 279.662 490.245 278.978 488.975C279.328 490.554 280.181 491.973 281.408 493.019Z" fill="#25F4EE"/>
<path d="M278.977 488.976C278.578 487.221 278.83 485.378 279.686 483.79L278.425 483.113C278.114 484.078 278.003 485.096 278.098 486.104C278.193 487.112 278.492 488.089 278.977 488.976ZM262.305 492.052C261.254 491.49 260.021 491.37 258.878 491.717C257.735 492.065 256.774 492.853 256.207 493.908C255.386 495.438 255.538 497.235 256.44 498.577C256.314 497.64 256.487 496.685 256.936 495.851C257.503 494.796 258.463 494.008 259.606 493.66C260.749 493.311 261.982 493.431 263.033 493.993C263.442 494.213 263.798 494.494 264.106 494.808L266.703 489.969C266.343 489.707 265.966 489.469 265.575 489.257C265.506 489.219 265.439 489.191 265.369 489.153L263.376 492.867C263.061 492.543 262.701 492.268 262.305 492.052Z" fill="#FE2C55"/>
<path d="M281.408 493.017L279.432 496.699C277.078 495.438 275.182 493.466 274.013 491.06L268.841 500.696C266.261 505.503 260.268 507.334 255.481 504.765C253.701 503.81 252.26 502.325 251.356 500.514C251.696 501.827 252.303 503.055 253.138 504.12C253.973 505.186 255.019 506.066 256.21 506.707C260.991 509.273 266.987 507.452 269.571 502.637L274.742 493.002C275.912 495.408 277.808 497.38 280.162 498.641L282.704 493.904C282.242 493.656 281.807 493.359 281.408 493.017Z" fill="#FE2C55"/>
<path d="M268.841 500.695L274.012 491.061C275.182 493.466 277.078 495.439 279.433 496.699L281.409 493.018C280.182 491.972 279.328 490.553 278.978 488.975C278.494 488.087 278.195 487.11 278.099 486.102C278.003 485.094 278.112 484.076 278.42 483.109L274.969 481.257L264.767 500.249C264.177 501.257 263.221 501.998 262.1 502.317C260.98 502.637 259.781 502.51 258.755 501.962C258.128 501.624 257.59 501.14 257.186 500.552C256.782 499.964 256.524 499.288 256.431 498.579C255.972 497.897 255.708 497.102 255.667 496.279C255.626 495.456 255.809 494.637 256.198 493.909C256.765 492.855 257.725 492.067 258.868 491.719C260.011 491.371 261.243 491.491 262.294 492.053C262.702 492.272 263.059 492.554 263.367 492.867L265.36 489.154C260.618 486.742 254.762 488.579 252.216 493.323C250.985 495.615 250.75 498.177 251.357 500.515C252.26 502.326 253.7 503.81 255.48 504.766C260.261 507.332 266.26 505.504 268.841 500.695Z" fill="black"/>
</g>
</g>
</g>
<mask id="mask6_3838_1713" style="mask-type:luminance" maskUnits="userSpaceOnUse" x="400" y="112" width="89" height="115">
<path d="M488.799 130.477L432.189 112L400.999 207.562L457.609 226.039L488.799 130.477Z" fill="white"/>
</mask>
<g mask="url(#mask6_3838_1713)">
<mask id="mask7_3838_1713" style="mask-type:luminance" maskUnits="userSpaceOnUse" x="400" y="112" width="89" height="115">
<path d="M488.799 130.477L432.189 112L400.999 207.562L457.609 226.039L488.799 130.477Z" fill="white"/>
</mask>
<g mask="url(#mask7_3838_1713)">
<mask id="mask8_3838_1713" style="mask-type:luminance" maskUnits="userSpaceOnUse" x="400" y="112" width="89" height="115">
<path d="M432.189 112L488.799 130.477L457.609 226.039L400.999 207.562L432.189 112Z" fill="white"/>
</mask>
<g mask="url(#mask8_3838_1713)">
<path d="M442.043 157.617L442.874 155.071C442.031 154.662 441.163 154.309 440.275 154.014C429.417 150.455 417.678 156.458 414.107 167.397C413.067 170.584 412.807 173.973 413.35 177.278C413.894 180.582 415.224 183.703 417.229 186.377C415.019 181.604 414.701 176.162 416.34 171.152C419.858 160.374 431.316 154.393 442.042 157.619" fill="#25F4EE"/>
<path d="M433.103 186.633C437.949 188.215 443.179 185.624 444.928 180.85L459.03 137.698L466.869 140.256C467.004 139.301 467.22 138.359 467.515 137.441L456.811 133.947L442.711 177.103C441.86 179.41 440.154 181.301 437.95 182.378C435.745 183.455 433.214 183.636 430.885 182.883C429.426 182.41 428.107 181.582 427.046 180.472C427.491 181.911 428.274 183.221 429.327 184.293C430.381 185.365 431.676 186.167 433.103 186.633ZM476.739 159.686L477.522 157.286C474.637 156.351 472.09 154.585 470.2 152.207C471.512 155.348 473.807 157.973 476.739 159.686Z" fill="#25F4EE"/>
<path d="M470.2 152.207C468.723 148.717 468.561 144.804 469.745 141.195L466.881 140.26C466.595 142.376 466.742 144.527 467.313 146.581C467.884 148.635 468.866 150.55 470.2 152.207ZM436.782 164.77C434.394 163.995 431.795 164.202 429.555 165.348C427.314 166.493 425.615 168.482 424.83 170.879C423.696 174.356 424.678 178.025 427.046 180.472C426.436 178.576 426.442 176.533 427.062 174.636C427.846 172.239 429.545 170.249 431.785 169.104C434.025 167.958 436.624 167.749 439.012 168.524C439.94 168.827 440.783 169.278 441.537 169.814L445.126 158.82C444.283 158.41 443.414 158.057 442.524 157.762C442.366 157.71 442.216 157.676 442.058 157.625L439.304 166.061C438.532 165.508 437.683 165.071 436.782 164.77Z" fill="#FE2C55"/>
<path d="M476.739 159.688L474.009 168.052C468.662 166.312 464 162.927 460.683 158.375L453.537 180.268C449.973 191.189 438.229 197.208 427.353 193.658C423.308 192.338 419.771 189.796 417.226 186.377C418.418 188.973 420.13 191.292 422.257 193.191C424.383 195.09 426.878 196.527 429.585 197.413C440.448 200.958 452.2 194.96 455.77 184.02L462.915 162.13C466.232 166.682 470.894 170.067 476.241 171.807L479.754 161.044C478.703 160.702 477.692 160.247 476.739 159.688Z" fill="#FE2C55"/>
<path d="M453.539 180.264L460.684 158.373C464.001 162.926 468.664 166.312 474.012 168.051L476.742 159.687C473.81 157.974 471.515 155.349 470.203 152.208C468.871 150.548 467.889 148.632 467.316 146.578C466.743 144.524 466.592 142.373 466.87 140.256L459.029 137.697L444.929 180.85C444.079 183.158 442.372 185.049 440.168 186.127C437.963 187.205 435.431 187.386 433.102 186.632C431.676 186.163 430.383 185.36 429.327 184.291C428.272 183.222 427.484 181.916 427.029 180.481C425.825 179.238 424.982 177.688 424.592 175.998C424.201 174.307 424.278 172.541 424.813 170.888C425.598 168.491 427.297 166.502 429.536 165.357C431.776 164.212 434.375 164.003 436.762 164.778C437.688 165.08 438.533 165.532 439.288 166.068L442.041 157.631C431.318 154.39 419.859 160.371 416.341 171.149C414.642 176.357 415.105 181.755 417.23 186.376C419.774 189.795 423.309 192.338 427.353 193.659C438.216 197.204 449.973 191.19 453.539 180.264Z" fill="black"/>
</g>
</g>
</g>
<mask id="mask9_3838_1713" style="mask-type:luminance" maskUnits="userSpaceOnUse" x="510" y="165" width="59" height="59">
<path d="M532.557 165.879L510.969 187.467L547.412 223.91L569 202.321L532.557 165.879Z" fill="white"/>
</mask>
<g mask="url(#mask9_3838_1713)">
<mask id="mask10_3838_1713" style="mask-type:luminance" maskUnits="userSpaceOnUse" x="510" y="165" width="59" height="59">
<path d="M532.557 165.879L510.969 187.467L547.412 223.91L569 202.321L532.557 165.879Z" fill="white"/>
</mask>
<g mask="url(#mask10_3838_1713)">
<mask id="mask11_3838_1713" style="mask-type:luminance" maskUnits="userSpaceOnUse" x="510" y="165" width="59" height="59">
<path d="M510.969 187.467L532.557 165.878L569 202.321L547.411 223.91L510.969 187.467Z" fill="white"/>
</mask>
<g mask="url(#mask11_3838_1713)">
<path d="M534.109 193.553L533.138 192.582C532.756 192.872 532.393 193.187 532.052 193.524C527.904 197.661 527.923 204.421 532.095 208.593C533.31 209.808 534.799 210.714 536.436 211.233C538.072 211.751 539.808 211.868 541.496 211.572C538.801 211.474 536.239 210.356 534.329 208.444C530.219 204.334 530.144 197.707 534.109 193.553Z" fill="#25F4EE"/>
<path d="M545.298 204.376C547.146 202.528 547.176 199.535 545.4 197.628L528.948 181.163L531.937 178.174C531.532 177.891 531.151 177.573 530.8 177.225L526.718 181.307L543.172 197.771C544.03 198.696 544.498 199.915 544.478 201.173C544.459 202.43 543.954 203.63 543.069 204.519C542.514 205.076 541.829 205.487 541.076 205.714C541.837 205.845 542.617 205.791 543.352 205.559C544.087 205.326 544.754 204.92 545.298 204.376ZM543.11 178.173L542.195 177.258C541.098 178.36 539.699 179.114 538.173 179.426C539.914 179.555 541.647 179.116 543.11 178.173Z" fill="#25F4EE"/>
<path d="M538.174 179.425C536.236 179.29 534.409 178.455 533.035 177.076L531.943 178.169C532.843 178.79 533.861 179.222 534.932 179.438C536.004 179.654 537.107 179.65 538.174 179.425ZM536.159 197.618C535.25 198.529 534.742 199.765 534.745 201.055C534.749 202.345 535.264 203.584 536.177 204.499C537.503 205.825 539.408 206.228 541.077 205.713C540.068 205.552 539.135 205.075 538.413 204.351C537.499 203.436 536.984 202.198 536.98 200.908C536.976 199.618 537.484 198.381 538.393 197.47C538.747 197.116 539.148 196.835 539.569 196.615L535.376 192.422C534.993 192.712 534.63 193.028 534.288 193.366C534.228 193.426 534.178 193.487 534.117 193.547L537.335 196.764C536.902 196.989 536.506 197.276 536.159 197.618Z" fill="#FE2C55"/>
<path d="M543.11 178.173L546.299 181.363C544.263 183.404 541.633 184.749 538.782 185.208L547.131 193.557C551.296 197.722 551.321 204.487 547.173 208.635C545.631 210.178 543.647 211.204 541.494 211.574C542.957 211.632 544.415 211.388 545.777 210.856C547.138 210.325 548.374 209.518 549.408 208.486C553.55 204.344 553.537 197.579 549.365 193.407L541.017 185.059C543.868 184.6 546.497 183.255 548.534 181.214L544.43 177.11C544.029 177.511 543.587 177.867 543.11 178.173Z" fill="#FE2C55"/>
<path d="M547.131 193.556L538.783 185.208C541.634 184.748 544.264 183.403 546.301 181.362L543.111 178.172C541.648 179.115 539.915 179.555 538.174 179.425C537.106 179.649 536.003 179.653 534.931 179.438C533.859 179.223 532.84 178.793 531.937 178.174L528.947 181.164L545.4 197.628C546.258 198.552 546.726 199.771 546.707 201.029C546.688 202.287 546.183 203.487 545.297 204.377C544.752 204.919 544.085 205.324 543.351 205.559C542.617 205.793 541.837 205.85 541.076 205.725C540.228 205.987 539.324 206.012 538.46 205.798C537.597 205.584 536.807 205.139 536.176 204.511C535.263 203.595 534.748 202.357 534.744 201.067C534.741 199.778 535.249 198.541 536.157 197.63C536.51 197.277 536.913 196.995 537.333 196.775L534.116 193.558C530.145 197.707 530.219 204.334 534.329 208.444C536.315 210.43 538.89 211.471 541.496 211.573C543.649 211.204 545.632 210.178 547.175 208.636C551.317 204.493 551.297 197.722 547.131 193.556Z" fill="black"/>
</g>
</g>
</g>
</g>
<defs>
<filter id="filter0_f_3838_1713" x="0" y="0" width="778" height="685" filterUnits="userSpaceOnUse" color-interpolation-filters="sRGB">
<feFlood flood-opacity="0" result="BackgroundImageFix"/>
<feBlend mode="normal" in="SourceGraphic" in2="BackgroundImageFix" result="shape"/>
<feGaussianBlur stdDeviation="75" result="effect1_foregroundBlur_3838_1713"/>
</filter>
<linearGradient id="paint0_linear_3838_1713" x1="249.5" y1="240.694" x2="447.363" y2="576.418" gradientUnits="userSpaceOnUse">
<stop offset="0.153846" stop-color="#25F4EE"/>
<stop offset="0.480769" stop-color="#C79FFF"/>
<stop offset="0.8125" stop-color="#FF004F"/>
</linearGradient>
<clipPath id="clip0_3838_1713">
<rect width="778" height="685" fill="white"/>
</clipPath>
</defs>
</svg>
