<svg width="778" height="837" viewBox="0 0 778 837" fill="none" xmlns="http://www.w3.org/2000/svg">
<g clip-path="url(#clip0_3838_1658)">
<g opacity="0.4" filter="url(#filter0_f_3838_1658)">
<path d="M628 389C628 257.004 520.996 150 389 150C257.004 150 150 257.004 150 389V448C150 579.996 257.004 687 389 687C520.996 687 628 579.996 628 448V389Z" fill="url(#paint0_linear_3838_1658)"/>
</g>
<mask id="mask0_3838_1658" style="mask-type:luminance" maskUnits="userSpaceOnUse" x="416" y="133" width="91" height="119">
<path d="M506.975 152.145L448.318 133L416 232.016L474.657 251.161L506.975 152.145Z" fill="white"/>
</mask>
<g mask="url(#mask0_3838_1658)">
<mask id="mask1_3838_1658" style="mask-type:luminance" maskUnits="userSpaceOnUse" x="416" y="133" width="91" height="119">
<path d="M506.975 152.145L448.318 133L416 232.016L474.657 251.161L506.975 152.145Z" fill="white"/>
</mask>
<g mask="url(#mask1_3838_1658)">
<mask id="mask2_3838_1658" style="mask-type:luminance" maskUnits="userSpaceOnUse" x="416" y="133" width="91" height="119">
<path d="M448.318 133L506.975 152.145L474.657 251.161L416.001 232.017L448.318 133Z" fill="white"/>
</mask>
<g mask="url(#mask2_3838_1658)">
<path d="M458.528 180.267L459.389 177.629C458.516 177.205 457.616 176.839 456.696 176.533C445.445 172.846 433.282 179.065 429.583 190.401C428.504 193.702 428.235 197.214 428.798 200.638C429.361 204.062 430.74 207.296 432.817 210.066C430.527 205.121 430.198 199.482 431.896 194.291C435.541 183.123 447.413 176.926 458.527 180.269" fill="#25F4EE"/>
<path d="M449.265 210.332C454.286 211.971 459.706 209.286 461.518 204.34L476.129 159.627L484.252 162.278C484.391 161.289 484.615 160.313 484.921 159.361L473.831 155.741L459.221 200.457C458.339 202.848 456.571 204.807 454.287 205.923C452.003 207.039 449.38 207.227 446.967 206.446C445.455 205.956 444.088 205.098 442.989 203.948C443.451 205.439 444.261 206.797 445.353 207.907C446.445 209.018 447.786 209.849 449.265 210.332ZM494.479 182.411L495.291 179.924C492.3 178.955 489.662 177.125 487.703 174.661C489.063 177.916 491.441 180.636 494.479 182.411Z" fill="#25F4EE"/>
<path d="M487.703 174.663C486.173 171.047 486.005 166.991 487.232 163.253L484.264 162.284C483.968 164.476 484.121 166.704 484.712 168.833C485.303 170.961 486.321 172.945 487.703 174.663ZM453.077 187.679C450.603 186.876 447.91 187.091 445.589 188.278C443.267 189.465 441.507 191.526 440.693 194.01C439.518 197.612 440.536 201.414 442.99 203.949C442.358 201.985 442.363 199.867 443.006 197.903C443.818 195.419 445.578 193.357 447.899 192.17C450.221 190.982 452.914 190.766 455.388 191.569C456.349 191.883 457.222 192.351 458.004 192.906L461.722 181.514C460.849 181.09 459.949 180.724 459.027 180.418C458.863 180.364 458.708 180.329 458.544 180.276L455.691 189.018C454.891 188.444 454.01 187.991 453.077 187.679Z" fill="#FE2C55"/>
<path d="M494.479 182.411L491.65 191.077C486.109 189.275 481.279 185.768 477.842 181.051L470.438 203.735C466.745 215.051 454.577 221.287 443.307 217.609C439.116 216.242 435.452 213.607 432.815 210.065C434.049 212.755 435.824 215.158 438.027 217.126C440.23 219.093 442.815 220.582 445.62 221.5C456.875 225.173 469.053 218.958 472.752 207.623L480.155 184.941C483.592 189.658 488.422 193.166 493.963 194.968L497.603 183.817C496.514 183.462 495.467 182.99 494.479 182.411Z" fill="#FE2C55"/>
<path d="M470.439 203.733L477.842 181.051C481.279 185.769 486.111 189.277 491.653 191.079L494.481 182.413C491.443 180.638 489.065 177.918 487.706 174.663C486.325 172.943 485.308 170.958 484.714 168.83C484.121 166.701 483.963 164.473 484.252 162.279L476.127 159.627L461.518 204.341C460.637 206.732 458.869 208.692 456.585 209.809C454.3 210.925 451.677 211.113 449.263 210.332C447.786 209.845 446.446 209.014 445.352 207.906C444.258 206.798 443.442 205.445 442.971 203.958C441.723 202.67 440.85 201.064 440.445 199.313C440.041 197.561 440.12 195.731 440.675 194.018C441.488 191.535 443.248 189.474 445.569 188.288C447.89 187.101 450.582 186.885 453.056 187.687C454.015 188.001 454.891 188.469 455.673 189.024L458.526 180.282C447.414 176.924 435.542 183.122 431.897 194.289C430.135 199.686 430.615 205.279 432.817 210.067C435.453 213.609 439.116 216.244 443.307 217.612C454.562 221.286 466.744 215.054 470.439 203.733Z" fill="black"/>
</g>
</g>
</g>
<mask id="mask3_3838_1658" style="mask-type:luminance" maskUnits="userSpaceOnUse" x="536" y="192" width="73" height="73">
<path d="M563.018 192.097L536 219.115L581.609 264.724L608.627 237.706L563.018 192.097Z" fill="white"/>
</mask>
<g mask="url(#mask3_3838_1658)">
<mask id="mask4_3838_1658" style="mask-type:luminance" maskUnits="userSpaceOnUse" x="536" y="192" width="73" height="73">
<path d="M563.018 192.097L536 219.115L581.609 264.724L608.627 237.706L563.018 192.097Z" fill="white"/>
</mask>
<g mask="url(#mask4_3838_1658)">
<mask id="mask5_3838_1658" style="mask-type:luminance" maskUnits="userSpaceOnUse" x="536" y="192" width="73" height="73">
<path d="M536 219.115L563.018 192.097L608.627 237.706L581.609 264.724L536 219.115Z" fill="white"/>
</mask>
<g mask="url(#mask5_3838_1658)">
<path d="M564.96 226.731L563.745 225.516C563.266 225.879 562.812 226.273 562.385 226.695C557.194 231.873 557.218 240.333 562.439 245.554C563.959 247.075 565.823 248.208 567.871 248.858C569.92 249.507 572.092 249.653 574.204 249.283C570.831 249.16 567.625 247.761 565.235 245.368C560.091 240.224 559.999 231.931 564.961 226.732" fill="#25F4EE"/>
<path d="M578.964 240.276C581.277 237.963 581.314 234.218 579.091 231.83L558.501 211.225L562.242 207.483C561.735 207.129 561.259 206.732 560.819 206.296L555.711 211.405L576.303 232.01C577.376 233.167 577.962 234.693 577.938 236.267C577.914 237.841 577.282 239.342 576.174 240.455C575.48 241.153 574.622 241.666 573.679 241.951C574.632 242.114 575.609 242.047 576.528 241.756C577.448 241.465 578.283 240.957 578.964 240.276ZM576.226 207.482L575.08 206.337C573.707 207.716 571.957 208.66 570.047 209.05C572.225 209.212 574.394 208.662 576.226 207.482Z" fill="#25F4EE"/>
<path d="M570.046 209.05C567.62 208.881 565.334 207.837 563.614 206.111L562.247 207.478C563.374 208.256 564.647 208.797 565.988 209.067C567.329 209.337 568.71 209.332 570.046 209.05ZM567.524 231.819C566.386 232.959 565.75 234.507 565.754 236.121C565.759 237.736 566.403 239.286 567.546 240.431C569.206 242.09 571.59 242.594 573.678 241.951C572.416 241.749 571.249 241.152 570.344 240.246C569.201 239.101 568.556 237.551 568.551 235.936C568.546 234.322 569.182 232.774 570.319 231.634C570.762 231.19 571.265 230.84 571.791 230.564L566.544 225.316C566.065 225.68 565.61 226.074 565.183 226.497C565.107 226.573 565.044 226.648 564.969 226.724L568.995 230.751C568.454 231.032 567.957 231.391 567.524 231.819Z" fill="#FE2C55"/>
<path d="M576.226 207.483L580.218 211.475C577.669 214.028 574.378 215.712 570.81 216.287L581.259 226.736C586.471 231.948 586.503 240.415 581.312 245.606C579.382 247.537 576.899 248.822 574.204 249.284C576.035 249.357 577.86 249.051 579.564 248.386C581.268 247.721 582.815 246.712 584.108 245.42C589.293 240.236 589.276 231.77 584.055 226.548L573.607 216.101C577.175 215.526 580.466 213.842 583.015 211.288L577.878 206.152C577.377 206.653 576.823 207.1 576.226 207.483Z" fill="#FE2C55"/>
<path d="M581.257 226.735L570.809 216.288C574.378 215.713 577.67 214.029 580.219 211.474L576.227 207.482C574.395 208.662 572.226 209.212 570.048 209.05C568.711 209.33 567.33 209.335 565.988 209.066C564.647 208.797 563.372 208.259 562.242 207.485L558.499 211.227L579.091 231.831C580.164 232.989 580.75 234.514 580.727 236.089C580.703 237.663 580.071 239.164 578.963 240.278C578.28 240.957 577.445 241.464 576.527 241.757C575.608 242.05 574.632 242.121 573.679 241.965C572.618 242.293 571.486 242.324 570.406 242.057C569.325 241.789 568.337 241.232 567.547 240.445C566.404 239.3 565.76 237.75 565.755 236.136C565.751 234.522 566.386 232.975 567.523 231.834C567.965 231.392 568.469 231.04 568.995 230.764L564.968 226.737C559.999 231.931 560.091 240.224 565.235 245.368C567.721 247.854 570.944 249.157 574.205 249.284C576.899 248.822 579.382 247.538 581.312 245.608C586.496 240.424 586.472 231.95 581.257 226.735Z" fill="black"/>
</g>
</g>
</g>
<mask id="mask6_3838_1658" style="mask-type:luminance" maskUnits="userSpaceOnUse" x="394" y="601" width="82" height="103">
<path d="M443.275 601.343L394 620.162L425.769 703.341L475.043 684.522L443.275 601.343Z" fill="white"/>
</mask>
<g mask="url(#mask6_3838_1658)">
<mask id="mask7_3838_1658" style="mask-type:luminance" maskUnits="userSpaceOnUse" x="394" y="601" width="82" height="103">
<path d="M443.275 601.343L394 620.162L425.769 703.341L475.043 684.522L443.275 601.343Z" fill="white"/>
</mask>
<g mask="url(#mask7_3838_1658)">
<mask id="mask8_3838_1658" style="mask-type:luminance" maskUnits="userSpaceOnUse" x="394" y="601" width="82" height="103">
<path d="M394 620.162L443.275 601.343L475.043 684.522L425.769 703.341L394 620.162Z" fill="white"/>
</mask>
<g mask="url(#mask8_3838_1658)">
<path d="M426.203 646.084L425.356 643.867C424.548 644.055 423.754 644.296 422.978 644.588C413.518 648.187 408.78 658.861 412.417 668.383C413.476 671.157 415.185 673.635 417.401 675.608C419.616 677.58 422.271 678.988 425.141 679.712C420.96 677.657 417.709 674.087 416.046 669.724C412.463 660.343 417.02 649.84 426.204 646.086" fill="#25F4EE"/>
<path d="M436.215 671.043C440.433 669.432 442.591 664.734 441.135 660.472L426.801 622.901L433.625 620.295C433.185 619.563 432.809 618.794 432.501 617.997L423.184 621.555L437.52 659.127C438.22 661.19 438.099 663.442 437.181 665.413C436.264 667.383 434.621 668.918 432.598 669.696C431.33 670.184 429.96 670.348 428.611 670.175C429.72 670.918 430.988 671.384 432.311 671.535C433.634 671.686 434.972 671.517 436.215 671.043ZM451.247 628.175L450.449 626.086C447.941 627.05 445.204 627.252 442.577 626.668C445.231 628.101 448.274 628.629 451.247 628.175Z" fill="#25F4EE"/>
<path d="M442.577 626.67C439.615 625.09 437.323 622.485 436.128 619.34L433.635 620.293C434.617 621.909 435.916 623.308 437.454 624.404C438.992 625.501 440.735 626.271 442.577 626.67ZM426.566 653.94C424.49 654.736 422.816 656.327 421.911 658.364C421.007 660.401 420.945 662.718 421.74 664.806C422.896 667.832 425.617 669.811 428.611 670.176C427.135 669.211 426 667.801 425.37 666.149C424.575 664.062 424.636 661.745 425.54 659.708C426.444 657.671 428.117 656.079 430.193 655.282C431.001 654.974 431.832 654.815 432.651 654.763L428.996 645.194C428.187 645.382 427.392 645.622 426.615 645.915C426.477 645.967 426.356 646.027 426.218 646.08L429.022 653.424C428.182 653.472 427.354 653.645 426.566 653.94Z" fill="#FE2C55"/>
<path d="M451.247 628.175L454.027 635.455C449.376 637.237 444.28 637.503 439.46 636.217L446.738 655.273C450.369 664.779 445.636 675.467 436.169 679.082C432.648 680.428 428.796 680.647 425.139 679.712C427.406 680.835 429.877 681.478 432.4 681.601C434.922 681.723 437.44 681.323 439.798 680.424C449.253 676.813 454.003 666.135 450.366 656.613L443.089 637.559C447.909 638.845 453.006 638.579 457.657 636.797L454.079 627.429C453.164 627.779 452.215 628.029 451.247 628.175Z" fill="#FE2C55"/>
<path d="M446.736 655.272L439.459 636.218C444.28 637.504 449.377 637.238 454.029 635.455L451.248 628.175C448.275 628.629 445.232 628.1 442.578 626.668C440.736 626.267 438.993 625.496 437.454 624.401C435.915 623.305 434.612 621.909 433.624 620.296L426.799 622.903L441.134 660.473C441.835 662.536 441.714 664.789 440.796 666.759C439.879 668.73 438.236 670.265 436.212 671.044C434.969 671.515 433.631 671.683 432.309 671.535C430.986 671.387 429.716 670.927 428.603 670.192C427.082 670.007 425.638 669.409 424.427 668.463C423.216 667.517 422.285 666.258 421.732 664.821C420.938 662.734 420.999 660.418 421.903 658.381C422.807 656.344 424.48 654.753 426.556 653.956C427.362 653.648 428.195 653.489 429.014 653.437L426.209 646.094C417.019 649.837 412.462 660.34 416.045 669.721C417.776 674.255 421.103 677.714 425.141 679.712C428.797 680.648 432.649 680.429 436.169 679.085C445.624 675.474 450.369 664.782 446.736 655.272Z" fill="black"/>
</g>
</g>
</g>
</g>
<defs>
<filter id="filter0_f_3838_1658" x="0" y="0" width="778" height="837" filterUnits="userSpaceOnUse" color-interpolation-filters="sRGB">
<feFlood flood-opacity="0" result="BackgroundImageFix"/>
<feBlend mode="normal" in="SourceGraphic" in2="BackgroundImageFix" result="shape"/>
<feGaussianBlur stdDeviation="75" result="effect1_foregroundBlur_3838_1658"/>
</filter>
<linearGradient id="paint0_linear_3838_1658" x1="249.5" y1="276.5" x2="559" y2="653" gradientUnits="userSpaceOnUse">
<stop offset="0.153846" stop-color="#25F4EE"/>
<stop offset="0.480769" stop-color="#C79FFF"/>
<stop offset="0.8125" stop-color="#FF004F"/>
</linearGradient>
<clipPath id="clip0_3838_1658">
<rect width="778" height="837" fill="white"/>
</clipPath>
</defs>
</svg>
